<?xml version="1.0" standalone="no"?>
<!DOCTYPE svg PUBLIC "-//W3C//DTD SVG 20010904//EN"
 "http://www.w3.org/TR/2001/REC-SVG-20010904/DTD/svg10.dtd">
<svg version="1.0" xmlns="http://www.w3.org/2000/svg"
 width="2110.000000pt" height="2110.000000pt" viewBox="0 0 2110.000000 2110.000000"
 preserveAspectRatio="xMidYMid meet">
<metadata>
Created by potrace 1.11, written by Peter Selinger 2001-2013
</metadata>
<g transform="translate(0.000000,2110.000000) scale(0.100000,-0.100000)"
fill="#000000" stroke="none">
<path d="M13125 20835 c91 -20 151 -42 249 -93 185 -95 325 -234 432 -429 l29
-53 2995 -2 2995 -3 66 -32 c113 -55 202 -169 228 -291 16 -76 16 -18318 0
-18394 -31 -144 -135 -259 -277 -307 l-61 -21 -2974 0 -2973 0 -23 -47 c-137
-285 -431 -496 -757 -546 -106 -16 6689 -12 6810 4 390 52 713 346 824 748
l27 96 0 9250 c0 7558 -2 9262 -13 9315 -82 407 -388 719 -787 801 -87 18
-211 19 -3470 18 -2832 0 -3370 -3 -3320 -14z"/>
<path d="M2482 20248 c-9 -9 -12 -453 -12 -1938 0 -2100 3 -1978 -54 -2069
-32 -50 -99 -108 -154 -134 -47 -22 -53 -22 -686 -25 -442 -2 -644 -6 -653
-14 -11 -9 -13 -1297 -13 -7262 0 -6636 1 -7257 16 -7307 22 -74 56 -129 113
-182 57 -53 109 -82 188 -102 50 -13 678 -15 5290 -15 5163 0 5232 0 5243 19
7 13 10 640 10 1955 0 1921 0 1936 20 1990 27 72 85 135 162 177 l63 34 648 5
c561 4 649 7 657 20 14 21 13 14411 0 14505 -24 167 -140 298 -304 341 -71 19
-10515 21 -10534 2z m10580 -101 c64 -31 124 -94 160 -165 l23 -47 3 -7237 2
-7238 -599 0 c-559 0 -603 -1 -660 -19 -125 -39 -209 -112 -264 -229 l-32 -67
-3 -1933 -2 -1932 -5228 2 -5227 3 -58 30 c-73 36 -140 109 -166 181 l-21 55
0 7224 0 7225 579 0 c345 0 600 4 632 10 169 32 307 170 339 340 6 34 10 715
10 1941 l0 1889 5228 -2 5227 -3 57 -28z"/>
<path d="M5239 13513 c-1032 -1033 -1906 -1916 -1943 -1963 -307 -387 -486
-806 -558 -1305 -20 -139 -17 -533 5 -675 91 -584 330 -1063 732 -1466 401
-402 914 -654 1495 -736 138 -19 544 -16 683 5 528 81 977 291 1370 642 l97
87 85 -80 c336 -318 821 -555 1305 -637 242 -40 572 -45 800 -10 147 22 375
80 505 127 167 60 395 176 545 276 634 423 1041 1082 1136 1841 13 104 15 184
11 360 -5 245 -19 359 -68 560 -91 373 -285 755 -533 1046 -46 55 -918 934
-1938 1953 l-1853 1852 -1876 -1877z m3627 -355 c958 -959 1771 -1781 1809
-1828 244 -307 397 -646 466 -1035 20 -112 23 -163 23 -370 0 -207 -3 -258
-23 -370 -173 -972 -911 -1690 -1891 -1841 -158 -25 -462 -25 -620 0 -409 63
-747 207 -1070 454 -52 40 -574 553 -1357 1336 l-1273 1271 122 122 123 123
1270 -1268 c698 -698 1297 -1289 1330 -1314 283 -212 570 -333 906 -382 137
-20 381 -20 518 0 638 93 1170 483 1447 1063 134 280 201 636 176 935 -33 390
-155 714 -383 1019 -40 54 -629 650 -1693 1715 l-1631 1632 -1616 -1617 c-888
-890 -1640 -1649 -1671 -1688 -193 -242 -319 -511 -385 -820 -26 -121 -27
-146 -27 -370 0 -224 1 -249 27 -370 81 -379 253 -699 518 -964 268 -267 584
-437 966 -518 119 -25 145 -27 368 -27 222 0 249 2 365 26 361 78 661 231 913
467 l59 54 121 -122 122 -122 -75 -71 c-252 -239 -613 -433 -963 -518 -698
-170 -1399 -13 -1953 436 -572 463 -881 1197 -814 1929 38 412 194 816 448
1155 34 45 761 781 1826 1848 974 974 1773 1772 1776 1772 3 0 789 -784 1746
-1742z m-255 -715 c817 -819 1508 -1517 1536 -1553 226 -291 334 -604 334
-965 0 -258 -47 -462 -161 -690 -227 -455 -657 -766 -1162 -841 -147 -22 -390
-15 -530 15 -257 55 -487 168 -688 337 -41 34 -626 614 -1300 1288 l-1225
1226 122 122 123 123 1262 -1261 c1326 -1324 1313 -1312 1483 -1397 78 -39
216 -85 312 -103 107 -21 318 -23 423 -5 244 43 468 160 645 336 137 136 233
291 293 470 46 141 57 214 57 390 -1 142 -4 172 -29 269 -49 191 -120 334
-240 481 -35 44 -668 683 -1405 1420 l-1341 1340 -1366 -1365 c-808 -807
-1389 -1396 -1423 -1441 -107 -142 -190 -337 -222 -519 -17 -96 -17 -294 0
-390 45 -259 170 -492 362 -676 104 -99 181 -152 313 -215 335 -160 725 -153
1060 19 91 47 222 138 265 186 14 14 29 26 35 26 21 0 239 -227 233 -243 -3
-8 -37 -42 -76 -75 -201 -173 -438 -288 -724 -349 -127 -28 -457 -25 -590 5
-313 69 -559 204 -782 427 -222 222 -358 470 -427 781 -18 84 -22 130 -22 304
0 176 3 220 22 310 53 243 162 478 305 655 41 51 3028 3045 3037 3045 3 0 674
-669 1491 -1487z m1028 -2023 c224 -325 211 -733 -33 -1035 -36 -44 -91 -101
-124 -127 -76 -61 -208 -131 -297 -157 -192 -57 -424 -41 -605 42 -139 64
-148 72 -1432 1355 l-1248 1247 122 122 123 123 1250 -1248 c1220 -1219 1252
-1249 1321 -1280 207 -93 430 -56 584 98 97 98 150 226 150 365 0 45 -7 106
-16 136 -42 142 12 84 -1318 1417 l-1241 1242 120 120 120 120 1243 -1242
c684 -684 1261 -1268 1281 -1298z m-1777 823 c697 -697 1232 -1240 1238 -1256
49 -134 -80 -270 -217 -227 -31 10 -269 243 -1268 1241 l-1230 1229 120 120
c66 66 122 120 125 120 3 0 557 -552 1232 -1227z m-3048 -832 l119 -119 -35
-44 c-114 -140 -147 -335 -84 -502 73 -194 240 -318 451 -333 128 -9 260 33
354 113 l43 37 121 -121 121 -121 -29 -32 c-17 -17 -60 -51 -97 -75 -350 -233
-818 -185 -1100 114 -172 183 -244 375 -235 632 3 119 8 146 36 230 18 52 50
125 71 161 41 69 126 179 138 179 4 0 61 -54 126 -119z m483 -483 c62 -62 113
-119 113 -126 0 -17 -77 -52 -115 -52 -42 0 -107 32 -133 65 -29 36 -45 99
-36 138 8 39 35 87 48 87 6 0 61 -51 123 -112z"/>
<path d="M6345 6840 l-770 -770 1538 0 c845 0 1537 3 1537 8 0 8 -1522 1532
-1530 1532 -3 0 -352 -346 -775 -770z"/>
<path d="M13870 20176 c0 -3 9 -42 20 -88 11 -46 23 -118 26 -160 l7 -78 48 0
49 0 0 -100 0 -100 -50 0 -50 0 0 -170 0 -170 220 0 220 0 0 435 0 435 -245 0
c-135 0 -245 -2 -245 -4z"/>
<path d="M14440 19745 l0 -435 430 0 430 0 0 435 0 435 -430 0 -430 0 0 -435z
m530 5 l0 -100 -100 0 -100 0 0 100 0 100 100 0 100 0 0 -100z"/>
<path d="M15380 19745 l0 -435 435 0 435 0 0 435 0 435 -435 0 -435 0 0 -435z
m540 5 l0 -100 -100 0 -100 0 0 100 0 100 100 0 100 0 0 -100z"/>
<path d="M16330 19745 l0 -435 435 0 435 0 0 435 0 435 -435 0 -435 0 0 -435z
m540 5 l0 -100 -100 0 -100 0 0 100 0 100 100 0 100 0 0 -100z"/>
<path d="M17280 19745 l0 -435 435 0 435 0 0 435 0 435 -435 0 -435 0 0 -435z
m540 5 l0 -100 -100 0 -100 0 0 100 0 100 100 0 100 0 0 -100z"/>
<path d="M18230 19745 l0 -435 435 0 435 0 0 435 0 435 -435 0 -435 0 0 -435z
m530 5 l0 -100 -95 0 -95 0 0 100 0 100 95 0 95 0 0 -100z"/>
<path d="M19180 19746 l0 -436 436 0 436 0 -4 303 c-4 286 -5 305 -26 359 -29
73 -95 141 -170 176 l-57 27 -307 3 -308 3 0 -435z m530 4 l0 -100 -95 0 -95
0 0 100 0 100 95 0 95 0 0 -100z"/>
<path d="M1325 19228 c-14 -35 -328 -866 -351 -930 l-13 -38 88 0 89 0 40 113
40 112 198 3 199 2 39 -115 39 -115 89 0 c68 0 89 3 86 13 -3 6 -87 231 -188
500 l-184 487 -79 0 -78 0 -14 -32z m169 -392 c36 -103 66 -192 66 -197 0 -5
-66 -9 -146 -9 -113 0 -145 3 -142 13 3 6 36 101 74 209 38 108 72 192 75 185
4 -7 37 -97 73 -201z"/>
<path d="M13920 19035 l0 -195 1193 0 c655 0 1197 -4 1203 -8 7 -4 16 -70 22
-162 26 -356 104 -641 257 -937 329 -635 918 -1078 1619 -1218 131 -26 302
-45 402 -45 44 0 67 -5 78 -16 15 -14 16 -548 16 -5724 l0 -5709 -22 -15 c-16
-12 -47 -16 -110 -16 -108 0 -289 -23 -431 -55 -328 -74 -676 -241 -939 -452
-518 -413 -840 -1043 -874 -1706 -4 -73 -11 -138 -17 -144 -7 -10 -260 -13
-1203 -13 l-1194 0 0 -190 0 -190 2590 0 2590 0 0 7818 c0 4300 -3 8123 -7
8495 l-6 677 -2584 0 -2583 0 0 -195z"/>
<path d="M19180 18800 l0 -430 435 0 435 0 0 430 0 430 -435 0 -435 0 0 -430z
m530 0 l0 -100 -95 0 -95 0 0 100 0 100 95 0 95 0 0 -100z"/>
<path d="M13920 18612 c0 -136 1 -148 20 -160 20 -12 20 -23 20 -2497 0 -2473
0 -2485 -20 -2502 -19 -16 -20 -30 -20 -200 l0 -183 58 0 c80 0 313 -26 407
-45 438 -89 832 -298 1158 -614 208 -202 346 -391 472 -646 479 -965 233
-2132 -595 -2827 -390 -328 -853 -509 -1392 -543 l-108 -7 0 -179 c0 -166 1
-180 20 -199 20 -20 20 -33 20 -2500 0 -2467 0 -2480 -20 -2500 -18 -18 -20
-33 -20 -165 l0 -145 1164 0 1163 0 7 103 c33 481 197 927 480 1305 99 132
289 329 416 431 377 303 876 501 1327 526 59 4 118 8 131 11 l22 4 0 5655 0
5655 -60 0 c-231 0 -587 79 -840 186 -848 361 -1414 1158 -1476 2082 l-7 102
-1163 0 -1164 0 0 -148z m793 -214 c-7 -140 -487 -4945 -495 -4955 -14 -18
-43 -16 -58 3 -15 17 -37 -218 265 2859 113 1144 205 2091 205 2103 0 12 9 31
21 43 19 19 22 19 42 6 18 -12 22 -24 20 -59z m761 56 c9 -8 16 -21 16 -28 0
-25 -991 -4992 -1000 -5013 -12 -28 -55 -31 -69 -5 -13 26 984 5032 1006 5050
22 16 28 15 47 -4z m642 -588 c3 -13 -253 -872 -661 -2216 -366 -1207 -675
-2223 -686 -2257 -11 -34 -27 -64 -35 -67 -23 -9 -54 12 -54 37 0 12 307 1034
683 2270 712 2347 689 2277 735 2260 7 -3 15 -15 18 -27z m449 -783 c9 -9 15
-26 12 -37 -8 -40 -1568 -3791 -1581 -3805 -18 -17 -53 -6 -61 19 -7 22 1558
3809 1583 3828 21 16 27 15 47 -5z m511 -489 c13 -18 -64 -165 -909 -1745
-911 -1704 -922 -1724 -952 -1724 -25 0 -31 4 -33 26 -2 18 259 516 914 1740
504 943 922 1717 928 1721 17 12 37 5 52 -18z m562 -306 c7 -7 12 -21 12 -32
-1 -12 -490 -752 -1088 -1646 -1042 -1557 -1088 -1625 -1117 -1625 -27 0 -30
3 -30 30 0 23 249 402 1084 1650 596 891 1089 1623 1095 1627 16 11 30 10 44
-4z m682 -213 c9 -10 10 -22 4 -35 -5 -10 -583 -717 -1284 -1571 -701 -854
-1293 -1574 -1314 -1601 -26 -32 -47 -48 -62 -48 -26 0 -49 33 -37 54 4 7 600
734 1323 1615 1001 1218 1320 1601 1336 1601 12 0 27 -7 34 -15z m-2 -947 c7
-7 12 -19 12 -28 0 -8 -553 -568 -1228 -1243 -948 -948 -1232 -1226 -1245
-1221 -10 3 -22 15 -28 27 -10 18 109 140 1217 1248 676 676 1236 1229 1244
1229 9 0 21 -5 28 -12z m-4 -784 c23 -22 20 -40 -11 -68 -16 -14 -525 -432
-1132 -930 -745 -611 -1112 -906 -1127 -906 -28 0 -46 28 -33 51 8 15 2167
1794 2242 1847 37 26 41 27 61 6z m9 -675 c6 -9 7 -24 4 -32 -10 -27 -2105
-1419 -2130 -1415 -17 2 -22 10 -22 33 0 29 46 61 1050 733 641 429 1057 702
1069 700 10 -2 24 -10 29 -19z m-9 -575 c21 -20 20 -37 -1 -56 -32 -28 -1951
-1048 -1972 -1048 -23 0 -40 25 -34 49 3 11 392 224 991 544 543 290 990 527
994 527 4 0 14 -7 22 -16z m10 -536 c8 -13 8 -23 0 -35 -6 -10 -410 -182 -937
-400 -776 -321 -930 -382 -947 -373 -22 12 -26 43 -7 61 23 21 1832 767 1856
766 13 -1 29 -10 35 -19z m-10 -474 c18 -17 20 -32 8 -52 -10 -15 -1748 -544
-1776 -540 -28 4 -44 34 -30 56 8 12 270 96 885 283 481 147 879 267 886 268
6 0 19 -6 27 -15z m4 -456 c16 -16 15 -43 -2 -57 -18 -15 -1670 -343 -1705
-339 -21 2 -26 8 -26 32 0 16 7 33 15 37 16 9 1651 337 1686 338 11 1 25 -4
32 -11z m0 -440 c16 -16 15 -43 -1 -56 -16 -13 -1642 -175 -1674 -167 -18 4
-23 13 -23 36 0 16 6 32 13 35 17 6 1566 162 1628 163 25 1 50 -4 57 -11z m6
-440 c8 -13 8 -23 0 -35 -10 -17 -63 -18 -839 -21 -603 -1 -831 1 -841 9 -17
14 -18 41 -2 57 9 9 205 12 841 10 778 -3 831 -4 841 -20z m-862 -323 c419
-41 781 -77 803 -80 45 -7 65 -20 65 -45 0 -45 10 -46 -857 40 -455 45 -834
87 -840 92 -14 11 -18 50 -6 61 11 12 58 8 835 -68z m26 -360 c547 -109 818
-167 828 -177 18 -18 12 -53 -11 -62 -15 -5 -1665 318 -1702 334 -28 12 -31
55 -6 69 10 5 31 7 48 4 16 -4 396 -79 843 -168z m-155 -326 c1055 -319 985
-296 992 -320 8 -25 -11 -49 -38 -49 -16 0 -1691 503 -1750 526 -39 14 -27 74
15 74 10 0 362 -104 781 -231z m53 -399 c505 -209 924 -386 932 -394 17 -17 8
-53 -17 -61 -17 -5 -1838 742 -1867 766 -26 21 -10 69 22 69 7 0 425 -171 930
-380z m-38 -396 c630 -336 974 -525 978 -537 7 -23 -13 -47 -40 -47 -30 1
-1958 1034 -1974 1059 -12 17 -11 22 7 40 15 15 27 19 39 13 9 -5 455 -242
990 -528z m-87 -395 c569 -380 1042 -699 1053 -709 22 -21 14 -56 -14 -65 -15
-5 -286 172 -1072 698 -616 411 -1054 711 -1056 721 -6 28 6 46 31 46 14 0
423 -267 1058 -691z m-62 -454 c664 -545 1131 -935 1131 -945 0 -21 -20 -40
-42 -40 -18 0 -2251 1824 -2275 1858 -17 24 10 66 37 59 10 -3 527 -422 1149
-932z m-95 -494 c1038 -1038 1227 -1231 1222 -1249 -21 -65 18 -101 -1277
1194 -676 676 -1229 1233 -1229 1238 0 14 31 46 44 46 6 0 564 -553 1240
-1229z m-1425 1040 c33 -18 2646 -3210 2646 -3233 0 -28 -29 -46 -52 -32 -20
12 -2638 3197 -2646 3218 -5 13 18 56 29 56 3 0 13 -4 23 -9z m-186 -193 c88
-119 2152 -3218 2155 -3237 6 -31 -23 -55 -49 -41 -18 10 -2165 3212 -2183
3256 -24 58 37 75 77 22z m669 -1824 c500 -934 915 -1709 921 -1722 9 -19 7
-26 -10 -43 -16 -17 -25 -19 -40 -10 -24 12 -1853 3427 -1853 3459 0 29 29 45
54 28 10 -6 428 -777 928 -1712z m-1151 1571 c9 -16 367 -875 795 -1909 606
-1464 775 -1882 767 -1895 -16 -26 -50 -25 -67 1 -18 29 -1576 3786 -1576
3802 0 19 23 37 44 34 11 -2 28 -16 37 -33z m-273 -64 c17 -10 -26 129 747
-2419 491 -1619 636 -2108 628 -2120 -13 -22 -47 -27 -61 -9 -14 16 -1372
4486 -1372 4514 0 35 30 52 58 34z m-248 -83 c6 -13 233 -1146 506 -2518 349
-1756 493 -2499 486 -2510 -12 -19 -52 -20 -64 0 -5 8 -234 1140 -507 2515
-345 1731 -496 2505 -489 2518 13 25 56 22 68 -5z m-268 -38 c15 -26 497
-4973 486 -4993 -14 -27 -61 -19 -70 13 -4 14 -100 970 -213 2125 -113 1155
-222 2267 -242 2471 -20 204 -33 379 -30 388 8 21 56 18 69 -4z"/>
<path d="M19180 17855 l0 -435 435 0 435 0 0 435 0 435 -435 0 -435 0 0 -435z
m530 -5 l0 -100 -95 0 -95 0 0 100 0 100 95 0 95 0 0 -100z"/>
<path d="M1204 17788 c-124 -125 -218 -230 -230 -253 -28 -58 -26 -185 3 -241
78 -147 256 -193 398 -103 l46 29 32 -23 c84 -62 188 -70 282 -22 134 69 188
226 125 360 -12 24 -103 123 -233 253 l-213 212 -210 -212z"/>
<path d="M19180 16905 l0 -435 435 0 435 0 0 435 0 435 -435 0 -435 0 0 -435z
m530 -5 l0 -100 -95 0 -95 0 0 100 0 100 95 0 95 0 0 -100z"/>
<path d="M1335 17090 l-80 -80 160 0 160 0 -80 80 c-44 44 -80 80 -80 80 0 0
-36 -36 -80 -80z"/>
<path d="M19180 15955 l0 -435 435 0 435 0 0 435 0 435 -435 0 -435 0 0 -435z
m530 0 l0 -95 -95 0 -95 0 0 95 0 95 95 0 95 0 0 -95z"/>
<path d="M19180 15005 l0 -435 435 0 435 0 0 435 0 435 -435 0 -435 0 0 -435z
m530 0 l0 -95 -95 0 -95 0 0 95 0 95 95 0 95 0 0 -95z"/>
<path d="M19180 14055 l0 -435 435 0 435 0 0 435 0 435 -435 0 -435 0 0 -435z
m530 0 l0 -95 -95 0 -95 0 0 95 0 95 95 0 95 0 0 -95z"/>
<path d="M19180 13105 l0 -435 435 0 435 0 0 435 0 435 -435 0 -435 0 0 -435z
m530 0 l0 -95 -95 0 -95 0 0 95 0 95 95 0 95 0 0 -95z"/>
<path d="M13920 10730 l0 -2263 115 7 c826 49 1550 528 1911 1263 104 211 174
445 215 718 18 119 15 457 -5 590 -77 499 -293 932 -641 1280 -394 395 -918
630 -1477 661 l-118 7 0 -2263z"/>
<path d="M19180 12155 l0 -435 435 0 435 0 0 435 0 435 -435 0 -435 0 0 -435z
m530 0 l0 -95 -95 0 -95 0 0 95 0 95 95 0 95 0 0 -95z"/>
<path d="M19180 11205 l0 -435 435 0 435 0 0 435 0 435 -435 0 -435 0 0 -435z
m530 0 l0 -95 -95 0 -95 0 0 95 0 95 95 0 95 0 0 -95z"/>
<path d="M19180 10255 l0 -435 435 0 435 0 0 435 0 435 -435 0 -435 0 0 -435z
m530 0 l0 -95 -95 0 -95 0 0 95 0 95 95 0 95 0 0 -95z"/>
<path d="M19180 9305 l0 -435 435 0 435 0 0 435 0 435 -435 0 -435 0 0 -435z
m530 0 l0 -95 -95 0 -95 0 0 95 0 95 95 0 95 0 0 -95z"/>
<path d="M19180 8355 l0 -435 435 0 435 0 0 435 0 435 -435 0 -435 0 0 -435z
m530 0 l0 -95 -95 0 -95 0 0 95 0 95 95 0 95 0 0 -95z"/>
<path d="M19180 7405 l0 -435 435 0 435 0 0 435 0 435 -435 0 -435 0 0 -435z
m530 0 l0 -95 -95 0 -95 0 0 95 0 95 95 0 95 0 0 -95z"/>
<path d="M19180 6455 l0 -435 435 0 435 0 0 435 0 435 -435 0 -435 0 0 -435z
m530 0 l0 -95 -95 0 -95 0 0 95 0 95 95 0 95 0 0 -95z"/>
<path d="M19180 5505 l0 -435 435 0 435 0 0 435 0 435 -435 0 -435 0 0 -435z
m530 0 l0 -95 -95 0 -95 0 0 95 0 95 95 0 95 0 0 -95z"/>
<path d="M19180 4555 l0 -435 435 0 435 0 0 435 0 435 -435 0 -435 0 0 -435z
m530 5 l0 -100 -95 0 -95 0 0 100 0 100 95 0 95 0 0 -100z"/>
<path d="M12738 4378 l82 -83 82 83 83 82 -165 0 -165 0 83 -82z"/>
<path d="M12539 4306 c-130 -46 -197 -149 -187 -283 2 -32 13 -76 23 -98 11
-24 101 -123 229 -253 l210 -212 209 207 c241 240 261 269 261 378 0 87 -28
149 -91 204 -97 86 -221 94 -334 23 l-45 -29 -30 23 c-62 50 -169 67 -245 40z"/>
<path d="M19180 3605 l0 -435 435 0 435 0 0 435 0 435 -435 0 -435 0 0 -435z
m530 5 l0 -100 -95 0 -95 0 0 100 0 100 95 0 95 0 0 -100z"/>
<path d="M12380 3148 c11 -29 96 -253 189 -498 l168 -445 80 -3 c59 -2 82 1
85 10 75 195 362 958 365 971 5 15 -4 17 -84 17 l-90 0 -39 -115 -39 -115
-196 0 -196 0 -39 113 -40 112 -92 3 -92 3 20 -53z m580 -325 c0 -6 -112 -331
-132 -383 l-10 -25 -10 25 c-5 14 -38 107 -73 208 l-64 182 145 0 c79 0 144
-3 144 -7z"/>
<path d="M19180 2660 l0 -430 435 0 435 0 0 430 0 430 -435 0 -435 0 0 -430z
m530 0 l0 -100 -95 0 -95 0 0 100 0 100 95 0 95 0 0 -100z"/>
<path d="M13920 1980 l0 -170 50 0 50 0 0 -100 0 -100 -48 0 -48 0 -11 -102
c-7 -57 -21 -131 -31 -165 l-20 -63 249 0 249 0 0 435 0 435 -220 0 -220 0 0
-170z"/>
<path d="M14440 1715 l0 -435 430 0 430 0 0 435 0 435 -430 0 -430 0 0 -435z
m530 -5 l0 -100 -100 0 -100 0 0 100 0 100 100 0 100 0 0 -100z"/>
<path d="M15380 1715 l0 -435 435 0 435 0 0 435 0 435 -435 0 -435 0 0 -435z
m540 -5 l0 -100 -100 0 -100 0 0 100 0 100 100 0 100 0 0 -100z"/>
<path d="M16330 1715 l0 -435 435 0 435 0 0 435 0 435 -435 0 -435 0 0 -435z
m540 -5 l0 -100 -100 0 -100 0 0 100 0 100 100 0 100 0 0 -100z"/>
<path d="M17280 1715 l0 -435 435 0 435 0 0 435 0 435 -435 0 -435 0 0 -435z
m540 -5 l0 -100 -100 0 -100 0 0 100 0 100 100 0 100 0 0 -100z"/>
<path d="M18230 1715 l0 -435 435 0 435 0 0 435 0 435 -435 0 -435 0 0 -435z
m530 -5 l0 -100 -95 0 -95 0 0 100 0 100 95 0 95 0 0 -100z"/>
<path d="M19180 1714 l0 -435 308 3 c269 3 312 5 347 21 67 30 112 67 149 120
59 87 66 135 66 449 l0 278 -435 0 -435 0 0 -436z m530 -4 l0 -100 -95 0 -95
0 0 100 0 100 95 0 95 0 0 -100z"/>
</g>
</svg>
